<svg width="512" height="512" viewBox="0 0 512 512" fill="none" xmlns="http://www.w3.org/2000/svg">
<rect width="512" height="512" rx="80" fill="white"/>
<path fill-rule="evenodd" clip-rule="evenodd" d="M117.226 111.553C113.738 118.716 116.675 127.372 123.787 130.886C134.002 135.934 142.867 140.91 151.644 150.878C156.9 156.847 165.966 157.394 171.892 152.1C177.819 146.805 178.362 137.674 173.105 131.704C160.598 117.501 147.724 110.529 136.421 104.944C129.309 101.43 120.715 104.389 117.226 111.553Z" fill="#34322D"/>
<path fill-rule="evenodd" clip-rule="evenodd" d="M194.75 69.4868C187.065 71.422 182.392 79.266 184.314 87.0069C185.656 92.415 186.908 97.0393 188.054 101.272C190.247 109.375 192.052 116.044 193.362 124.035C194.652 131.907 202.034 137.236 209.85 135.936C217.666 134.636 222.956 127.201 221.666 119.328C220.118 109.884 217.708 100.949 215.289 91.98C214.217 88.0085 213.144 84.0304 212.144 79.9989C210.222 72.258 202.435 67.5516 194.75 69.4868Z" fill="#34322D"/>
<path fill-rule="evenodd" clip-rule="evenodd" d="M276.742 78.3751C269.97 74.236 261.148 76.4105 257.039 83.2321C249.416 95.8862 245.409 108.346 241.688 123.341C239.766 131.082 244.439 138.926 252.124 140.861C259.809 142.797 267.596 138.09 269.518 130.349C272.968 116.45 276.132 107.238 281.564 98.2212C285.673 91.3997 283.515 82.5142 276.742 78.3751Z" fill="#34322D"/>
<path fill-rule="evenodd" clip-rule="evenodd" d="M349.867 435.275C377.681 417.5 396.912 322.171 392.682 293.784C392.682 293.784 388.273 278.545 377.515 278.544C369.273 278.544 364.719 285.245 363.039 288.379C361.587 287.841 360.108 287.355 358.936 286.976C358.303 286.772 357.417 286.49 356.586 286.226L355.009 285.723C353.722 285.311 352.51 284.913 351.37 284.519L351.372 284.115C351.422 274.901 350.486 260.523 340.942 245.542C339.415 243.145 337.974 241.001 336.741 239.183L335.969 238.044C335.052 236.694 334.333 235.635 333.64 234.577C331.942 231.983 331.478 230.983 331.298 230.523L331.29 230.502C331.219 230.323 331.076 229.959 331.037 228.85C330.989 227.487 331.105 224.908 331.989 220.396L336.583 202.039L336.599 201.944C336.902 200.26 337.175 198.745 337.323 196.279C337.46 194.008 337.488 190.709 336.911 186.882C335.819 179.634 331.628 165.893 316.857 157.928C313.248 155.982 308.924 154.817 304.662 154.259C301.796 153.885 297.966 153.628 293.517 153.972C284.442 154.673 272.534 157.94 261.932 167.66L259.292 170.437C253.13 177.88 246.621 187.095 241.684 195.25C226.693 188.194 209.047 180.093 196.718 175.737C183.187 170.957 168.084 166.957 153.892 167.471C138.174 168.041 120.502 174.631 111.25 193.281C107.45 200.943 105.828 209.89 107.78 219.216C109.645 228.127 114.257 234.943 118.663 239.698C126.842 248.528 137.799 253.998 145.52 257.313C151.432 259.852 157.507 261.964 162.885 263.673C162.317 264.702 161.748 265.766 161.199 266.845C159.573 270.043 157.628 274.322 156.347 279.216C155.07 284.097 154.063 291.052 155.883 298.897C157.752 306.949 161.45 313.238 165.856 318.047C165.688 320.549 165.626 323.184 165.719 325.911C166.338 344.127 177.461 356.271 187.245 363.158C196.567 369.719 207.545 373.745 216.42 376.453C224.991 379.067 234.041 381.142 241.395 382.828L242.968 383.189C250.805 384.989 258.551 387.072 266.299 389.155C275.087 391.518 283.879 393.883 292.812 395.837C295.735 396.476 298.573 397.088 301.185 397.645L302.137 400.124C313.725 429.738 329.199 448.484 349.867 435.275ZM243.98 314.07C242.394 313.426 241.484 312.998 240.676 312.591C233.657 308.939 225.023 311.692 221.372 318.755C217.713 325.833 220.451 334.561 227.478 338.246C228.053 338.547 228.638 338.83 229.225 339.107C230.209 339.571 231.58 340.189 233.25 340.867C236.542 342.205 241.222 343.87 246.529 345.004C255.946 347.016 273.353 348.551 285.155 334.926C290.821 328.385 293.544 319.791 294.579 311.755C295.645 303.476 295.113 294.394 293.033 285.554C288.936 268.141 278.088 249.087 257.834 240.05C240.48 232.307 223.329 230.486 208.866 232.12C199.21 233.21 189.985 235.947 182.574 240.119V239.798C164.452 234.585 128.386 224.211 137.268 206.307C144.001 192.735 162.446 193.857 187.466 202.696C197.628 206.286 211.749 212.683 225.069 218.921C229.198 220.855 233.25 222.774 237.083 224.589C242.67 227.234 252.011 231.591 252.011 231.591C262.635 218.749 266.759 211.675 270.4 205.431C272.904 201.136 275.179 197.235 279.182 192.119C284.848 184.879 294.006 180.404 303.4 183.024C309.948 186.555 308.284 195.473 308.284 195.473L303.734 213.656C299.39 235.055 304.198 242.137 312.123 253.808C313.515 255.858 315.004 258.05 316.556 260.486C322.876 270.407 322.584 279.948 322.346 287.734C322.192 292.743 322.061 297.025 323.726 300.217C327.155 306.791 339.987 310.867 348.4 313.54C350.422 314.182 352.189 314.743 353.508 315.238L354.41 315.596C353.224 319.299 352.147 323.134 351.07 326.964C346.284 343.999 341.52 360.958 327.314 366.039C309.385 372.452 291.456 366.384 291.456 366.384C288.224 365.433 284.934 364.696 281.642 363.96C277.54 363.041 273.437 362.123 269.443 360.788C263.878 358.707 256.082 356.918 247.61 354.975C227.436 350.346 203.426 344.837 196.551 332.403C195.392 330.309 194.72 328.018 194.635 325.501C194.246 314.066 198.223 303.828 198.223 303.828C198.223 303.828 192.055 303.854 187.729 299.662C186.117 298.1 184.76 295.951 184.075 292.997C182.705 287.096 183.881 278.542 191.053 271.319L194.646 267.708C196.462 265.879 201.844 261.989 212.063 260.835C221.763 259.739 233.77 260.916 246.216 266.469C255.762 270.728 262.363 280.5 265.12 292.218C266.467 297.944 266.714 303.503 266.13 308.039C265.515 312.818 264.16 315.212 263.539 315.929C262.767 316.82 260.048 318.355 252.482 316.738C249.296 316.057 246.271 315.001 243.98 314.07Z" fill="#34322D"/>
</svg>
